<?xml version="1.0" encoding="UTF-8"?>
<svg width="692px" height="497px" viewBox="0 0 692 497" version="1.1" xmlns="http://www.w3.org/2000/svg" xmlns:xlink="http://www.w3.org/1999/xlink">
    <title>undraw_doctor_kw5l</title>
    <defs>
        <linearGradient x1="50%" y1="100%" x2="50%" y2="0%" id="linearGradient-1">
            <stop stop-color="#808080" stop-opacity="0.25" offset="0%"></stop>
            <stop stop-color="#808080" stop-opacity="0.12" offset="54%"></stop>
            <stop stop-color="#808080" stop-opacity="0.1" offset="100%"></stop>
        </linearGradient>
        <linearGradient x1="50.0095325%" y1="99.9974447%" x2="50.0095325%" y2="-0.00188458537%" id="linearGradient-2">
            <stop stop-color="#808080" stop-opacity="0.25" offset="0%"></stop>
            <stop stop-color="#808080" stop-opacity="0.12" offset="54%"></stop>
            <stop stop-color="#808080" stop-opacity="0.1" offset="100%"></stop>
        </linearGradient>
    </defs>
    <g id="Desktop-Homepage" stroke="none" stroke-width="1" fill="none" fill-rule="evenodd">
        <g id="Artboard-Copy-2" transform="translate(-858.000000, -2581.000000)">
            <g id="undraw_doctor_kw5l" transform="translate(735.000000, 2386.000000)">
                <g transform="translate(123.000000, 195.000000)">
                    <path d="M401.876523,89.0036295 C357.577447,87.4690274 315.352404,73.2137152 275.093241,57.6203823 C234.834077,42.0270493 194.93119,24.7469223 151.66913,16.484168 C123.854171,11.1637913 92.0438331,10.4155142 69.6366312,25.2795941 C48.0692222,39.5792955 41.1027582,64.2660972 37.3555005,87.1709848 C34.5371045,104.406722 32.9020532,122.542929 40.606517,138.681617 C45.9697399,149.880407 55.487393,159.297284 62.0721329,170.026816 C84.9755761,207.358232 68.7841142,253.396295 43.9593266,289.877972 C32.316743,306.999566 18.8100735,323.290445 9.82683416,341.496406 C0.843594773,359.702368 -3.31719741,380.559006 4.54631809,399.126423 C12.3398508,417.516283 30.904364,431.353067 51.0212216,441.074327 C91.8784194,460.802208 140.020185,466.445993 186.965881,469.680072 C290.883892,476.763338 395.361766,473.694134 499.553346,470.62493 C538.113837,469.48349 576.846105,468.335709 614.776751,462.3812 C635.841557,459.077366 657.593466,453.839427 672.887877,441.194813 C692.298545,425.138563 697.11463,397.959618 684.104202,377.825892 C662.28231,344.064646 601.950823,335.675065 586.694585,299.440699 C578.303018,279.497213 586.92362,257.277189 599.126065,238.779527 C625.293249,199.101819 669.166067,164.287911 671.475498,118.928371 C673.066014,87.7734112 651.97576,56.580404 619.363802,41.8368094 C585.186775,26.370303 537.789372,28.323433 512.576498,53.8853383 C486.612901,80.220886 440.984152,90.354333 401.876523,89.0036295 Z" id="Path" fill="#FFFFFF" fill-rule="nonzero" opacity="0.1"></path>
                    <path d="M154.391215,458 C154.391215,458 119.617769,431.797176 113.048749,398.467032 C110.384817,384.468447 103.239401,371.707983 92.6841545,362.099428 C87.6347282,357.579484 82.1810199,353.529463 76.3912146,350" id="Path" stroke="#535461" stroke-width="2"></path>
                    <path d="M70.4196628,332.705849 C73.1543599,336.77138 74.3912146,354 74.3912146,354 C74.3912146,354 59.7702305,347.670992 57.0298597,343.611697 C54.2896422,339.548062 55.0656665,333.812478 58.7631585,330.800912 C62.4606505,327.789345 67.6794452,328.642215 70.4196628,332.705849 L70.4196628,332.705849 Z" id="Path" fill="#FFFFFF" fill-rule="nonzero"></path>
                    <path d="M101.382697,343.551039 C101.689417,348.64596 93.6104169,364 93.6104169,364 C93.6104169,364 83.7156357,349.804756 83.4027815,344.709834 C83.1551786,339.655213 86.9122982,335.335682 91.8323007,335.018482 C96.7523033,334.701283 101.006275,338.504327 101.376563,343.551039 L101.382697,343.551039 Z" id="Path" fill="#FFFFFF" fill-rule="nonzero"></path>
                    <path d="M129.508284,382.805211 C127.297735,387.554299 112.910949,397 112.910949,397 C112.910949,397 111.374496,378.89574 113.585045,374.146651 C115.848876,369.500453 121.141318,367.66945 125.483052,370.030349 C129.824786,372.391248 131.615279,378.07373 129.508284,382.805211 L129.508284,382.805211 Z" id="Path" fill="#FFFFFF" fill-rule="nonzero"></path>
                    <path d="M143.992992,419.831224 C142.532359,424.661911 129.645512,436 129.645512,436 C129.645512,436 125.226636,419.313873 126.687268,414.476953 C128.149173,409.643725 133.208298,406.924214 137.987142,408.402755 C142.765985,409.881296 145.454896,414.997996 143.992992,419.831224 L143.992992,419.831224 Z" id="Path" fill="#FFFFFF" fill-rule="nonzero"></path>
                    <path d="M78.4120079,377.955748 C83.4535716,378.619127 99.3912146,371.604508 99.3912146,371.604508 C99.3912146,371.604508 85.9428436,360.744747 80.8760722,360.081368 C75.8119834,359.418163 71.1551288,362.881845 70.4746962,367.817719 C69.7942637,372.753593 73.3479192,377.292543 78.4120079,377.955748 L78.4120079,377.955748 Z" id="Path" fill="#FFFFFF" fill-rule="nonzero"></path>
                    <path d="M95.2991602,418.854357 C100.347519,418.012446 113.391215,406.674298 113.391215,406.674298 C113.391215,406.674298 97.198605,400.233984 92.1565571,401.075895 C88.8716599,401.600272 86.1282074,403.800647 84.9700893,406.839771 C83.8119712,409.878895 84.4172613,413.28947 86.5556454,415.773764 C88.6940294,418.258057 92.0367067,419.434082 95.311781,418.854357 L95.2991602,418.854357 Z" id="Path" fill="#FFFFFF" fill-rule="nonzero"></path>
                    <path d="M117.592294,453 C122.671992,453 137.391215,443.993869 137.391215,443.993869 C137.391215,443.993869 122.665729,435 117.586031,435 C112.507874,435 108.391215,439.029437 108.391215,444 C108.391215,448.970563 112.507874,453 117.586031,453 L117.592294,453 Z" id="Path" fill="#FFFFFF" fill-rule="nonzero"></path>
                    <path d="M493.391215,232 C493.391215,232 515.032801,193.917695 547.65478,182.94644 C561.353087,178.42724 573.207095,169.617731 581.438638,157.839388 C585.299301,152.208364 588.630838,146.236788 591.391215,140" id="Path" stroke="#535461" stroke-width="2"></path>
                    <path d="M610.633098,132.083154 C606.876557,135.481326 589.391215,139 589.391215,139 C589.391215,139 593.683482,122.792409 597.440023,119.388212 C601.212279,116.09139 607.118748,116.223979 610.716877,119.686253 C614.315006,123.148527 614.277735,128.663532 610.633098,132.083154 Z" id="Path" fill="#FFFFFF" fill-rule="nonzero"></path>
                    <path d="M602.739045,163.894322 C597.696746,164.864601 581.391215,158.83413 581.391215,158.83413 C581.391215,158.83413 594.123018,147.166213 599.133801,146.214356 C602.408869,145.506198 605.820796,146.58072 608.05083,149.022607 C610.280865,151.464493 610.979622,154.891168 609.877023,157.978179 C608.774424,161.065189 606.043215,163.328886 602.739045,163.894322 L602.739045,163.894322 Z" id="Path" fill="#FFFFFF" fill-rule="nonzero"></path>
                    <path d="M566.081582,196.462842 C561.287477,194.833414 550.391215,181.576637 550.391215,181.576637 C550.391215,181.576637 567.289497,177.776689 572.096119,179.406116 C575.239013,180.430403 577.577743,183.036978 578.217748,186.228831 C578.857753,189.420683 577.700008,192.703951 575.187349,194.822791 C572.674689,196.94163 569.195889,197.568201 566.081582,196.462842 L566.081582,196.462842 Z" id="Path" fill="#FFFFFF" fill-rule="nonzero"></path>
                    <path d="M534.565152,214.885103 C529.509815,214.074467 516.391215,202.805387 516.391215,202.805387 C516.391215,202.805387 532.561975,196.25888 537.610993,197.069517 C542.671467,197.878434 546.099029,202.520971 545.266669,207.438913 C544.434308,212.356855 539.657222,215.687879 534.596748,214.878962 L534.565152,214.885103 Z" id="Path" fill="#FFFFFF" fill-rule="nonzero"></path>
                    <path d="M564.391215,145.336502 C564.385094,150.376672 573.392741,165 573.392741,165 C573.392741,165 582.38814,150.395316 582.38814,145.361361 C582.473414,142.04628 580.779546,138.9453 577.964123,137.262271 C575.1487,135.579243 571.655152,135.579243 568.839728,137.262271 C566.024305,138.9453 564.330438,142.04628 564.415712,145.361361 L564.391215,145.336502 Z" id="Path" fill="#FFFFFF" fill-rule="nonzero"></path>
                    <path d="M528.705288,169.720917 C530.205128,174.606535 543.24506,186 543.24506,186 C543.24506,186 547.58344,169.070763 546.071205,164.185145 C544.441258,159.480445 539.446597,156.934586 534.772026,158.425774 C530.097456,159.916962 527.421209,164.909839 528.717683,169.720917 L528.705288,169.720917 Z" id="Path" fill="#FFFFFF" fill-rule="nonzero"></path>
                    <path d="M494.502922,196.625228 C495.165403,201.630273 506.010473,215 506.010473,215 C506.010473,215 513.009468,199.202826 512.346986,194.179012 C511.989207,190.865429 509.899083,188.009745 506.886018,186.717826 C503.872953,185.425907 500.410091,185.900626 497.838431,187.958146 C495.26677,190.015666 493.990142,193.332894 494.502922,196.625228 L494.502922,196.625228 Z" id="Path" fill="#FFFFFF" fill-rule="nonzero"></path>
                    <path d="M610.633098,132.083154 C606.876557,135.481326 589.391215,139 589.391215,139 C589.391215,139 593.683482,122.792409 597.440023,119.388212 C601.212279,116.09139 607.118748,116.223979 610.716877,119.686253 C614.315006,123.148527 614.277735,128.663532 610.633098,132.083154 Z" id="Path" fill="#000000" fill-rule="nonzero" opacity="0.25"></path>
                    <path d="M602.739045,163.894322 C597.696746,164.864601 581.391215,158.83413 581.391215,158.83413 C581.391215,158.83413 594.123018,147.166213 599.133801,146.214356 C602.408869,145.506198 605.820796,146.58072 608.05083,149.022607 C610.280865,151.464493 610.979622,154.891168 609.877023,157.978179 C608.774424,161.065189 606.043215,163.328886 602.739045,163.894322 L602.739045,163.894322 Z" id="Path" fill="#000000" fill-rule="nonzero" opacity="0.25"></path>
                    <path d="M566.081582,196.462842 C561.287477,194.833414 550.391215,181.576637 550.391215,181.576637 C550.391215,181.576637 567.289497,177.776689 572.096119,179.406116 C575.239013,180.430403 577.577743,183.036978 578.217748,186.228831 C578.857753,189.420683 577.700008,192.703951 575.187349,194.822791 C572.674689,196.94163 569.195889,197.568201 566.081582,196.462842 L566.081582,196.462842 Z" id="Path" fill="#000000" fill-rule="nonzero" opacity="0.25"></path>
                    <path d="M534.565152,214.885103 C529.509815,214.074467 516.391215,202.805387 516.391215,202.805387 C516.391215,202.805387 532.561975,196.25888 537.610993,197.069517 C542.671467,197.878434 546.099029,202.520971 545.266669,207.438913 C544.434308,212.356855 539.657222,215.687879 534.596748,214.878962 L534.565152,214.885103 Z" id="Path" fill="#000000" fill-rule="nonzero" opacity="0.25"></path>
                    <path d="M564.391215,145.336502 C564.385094,150.376672 573.392741,165 573.392741,165 C573.392741,165 582.38814,150.395316 582.38814,145.361361 C582.473414,142.04628 580.779546,138.9453 577.964123,137.262271 C575.1487,135.579243 571.655152,135.579243 568.839728,137.262271 C566.024305,138.9453 564.330438,142.04628 564.415712,145.361361 L564.391215,145.336502 Z" id="Path" fill="#000000" fill-rule="nonzero" opacity="0.25"></path>
                    <path d="M528.705288,169.720917 C530.205128,174.606535 543.24506,186 543.24506,186 C543.24506,186 547.58344,169.070763 546.071205,164.185145 C544.441258,159.480445 539.446597,156.934586 534.772026,158.425774 C530.097456,159.916962 527.421209,164.909839 528.717683,169.720917 L528.705288,169.720917 Z" id="Path" fill="#000000" fill-rule="nonzero" opacity="0.25"></path>
                    <path d="M494.502922,196.625228 C495.165403,201.630273 506.010473,215 506.010473,215 C506.010473,215 513.009468,199.202826 512.346986,194.179012 C511.989207,190.865429 509.899083,188.009745 506.886018,186.717826 C503.872953,185.425907 500.410091,185.900626 497.838431,187.958146 C495.26677,190.015666 493.990142,193.332894 494.502922,196.625228 L494.502922,196.625228 Z" id="Path" fill="#000000" fill-rule="nonzero" opacity="0.25"></path>
                    <path d="M494.391215,232 C494.391215,232 498.556254,188.3027 523.358873,165.066229 C533.820255,155.38218 540.916444,142.507347 543.583702,128.371701 C544.797571,121.651783 545.402562,114.832573 545.391215,108" id="Path" stroke="#535461" stroke-width="2"></path>
                    <path d="M562.732206,91.8283441 C560.889398,96.6140342 547.105198,107 547.105198,107 C547.105198,107 544.14442,89.6327814 546.005656,84.8470913 C547.871539,80.0618106 553.128502,77.7496546 557.747411,79.6827464 C562.36632,81.6158381 564.598089,87.0621551 562.732206,91.8474359 L562.732206,91.8283441 Z" id="Path" fill="#FFFFFF" fill-rule="nonzero"></path>
                    <path d="M566.364014,123.449748 C562.310088,126.122474 545.391215,127 545.391215,127 C545.391215,127 551.982666,112.351626 556.036592,109.678899 C558.654154,107.841296 562.129882,107.484045 565.109573,108.746336 C568.089264,110.008626 570.101584,112.690788 570.362499,115.747804 C570.623414,118.804821 569.091652,121.753127 566.364014,123.444012 L566.364014,123.449748 Z" id="Path" fill="#FFFFFF" fill-rule="nonzero"></path>
                    <path d="M545.945659,168.983812 C540.872968,169.400722 525.391215,161.626574 525.391215,161.626574 C525.391215,161.626574 539.328559,151.449063 544.401251,151.032153 C549.473896,150.615665 553.931814,154.293907 554.358291,159.247734 C554.784767,164.201562 551.018304,168.555062 545.945659,168.97155 L545.945659,168.983812 Z" id="Path" fill="#FFFFFF" fill-rule="nonzero"></path>
                    <path d="M524.591253,200.807716 C519.737934,202.040357 503.391215,196.943386 503.391215,196.943386 C503.391215,196.943386 515.181379,184.549181 520.034698,183.291888 C524.886759,182.037571 529.840152,184.941798 531.09841,189.778661 C532.356668,194.615523 529.443315,199.553399 524.591253,200.807716 L524.591253,200.807716 Z" id="Path" fill="#FFFFFF" fill-rule="nonzero"></path>
                    <path d="M525.081013,123.117873 C527.097777,127.912506 541.202834,138 541.202834,138 C541.202834,138 543.600816,120.244975 541.584051,115.450342 C539.494035,110.785013 534.248095,108.727356 529.76625,110.814952 C525.284405,112.902548 523.204621,118.372451 525.081013,123.137284 L525.081013,123.117873 Z" id="Path" fill="#FFFFFF" fill-rule="nonzero"></path>
                    <path d="M500.725859,158.249514 C504.025002,162.037038 520.391215,167 520.391215,167 C520.391215,167 517.628568,149.990349 514.329426,146.202826 C512.210123,143.69872 508.918177,142.539313 505.713944,143.168497 C502.50971,143.797681 499.889527,146.117993 498.856558,149.24108 C497.82359,152.364167 498.537843,155.806258 500.725859,158.249514 L500.725859,158.249514 Z" id="Path" fill="#FFFFFF" fill-rule="nonzero"></path>
                    <path d="M480.558638,196.331152 C483.161241,200.513752 498.390154,208 498.390154,208 C498.390154,208 498.519056,191.202921 495.934868,187.01426 C493.260364,182.993274 487.834025,181.799485 483.68406,184.319095 C479.534096,186.838705 478.163324,192.159293 480.589329,196.331152 L480.558638,196.331152 Z" id="Path" fill="#FFFFFF" fill-rule="nonzero"></path>
                    <path d="M462.391215,60 C463.703468,55.6926007 465.284495,51.3639826 466.391215,47 C465.063151,51.3639826 463.474219,55.7067465 462.391215,60 Z" id="Path" fill="url(#linearGradient-1)" fill-rule="nonzero"></path>
                    <path d="M457.596664,97.8240731 C457.507924,97.6716747 457.444539,97.5192762 457.374815,97.3795777 L457.374815,97.3795777 C457.374815,97.3160783 457.31143,97.2652789 457.286076,97.2017795 C457.147927,97.2670703 457.006131,97.324315 456.861394,97.3732277 C456.582499,97.4811766 456.297265,97.5827756 456.005692,97.6653247 C455.71412,97.7478739 455.593688,97.7923234 455.371839,97.8431229 C455.187926,97.9066044 454.999297,97.955439 454.80771,97.9891714 L454.858418,98.1034702 C455.092944,98.0526707 455.321131,98.0082212 455.555656,97.9447218 L455.619042,98.7321137 C455.88526,98.7321137 456.132463,98.6940141 456.373327,98.6940141 C456.487334,98.6877241 456.601601,98.6877241 456.715608,98.6940141 C457.210013,98.6940141 457.641034,98.6940141 457.983314,98.6940141 C457.850205,98.4082671 457.710757,98.1098201 457.596664,97.8240731 Z M586.268868,303.009504 C583.289758,298.989995 577.344214,255.848541 577.344214,255.848541 C577.344214,255.848541 565.649622,225.172008 568.837904,212.929334 C572.026186,200.686661 560.128761,169.362434 560.128761,169.362434 C560.128761,169.362434 552.268981,165.93982 551.844299,160.859872 C551.844299,160.859872 519.752311,150.699977 518.250079,143.080056 C517.03308,136.83172 497.130089,132.348666 489.980225,130.932631 C487.79977,122.118922 485.606638,113.895757 483.990312,109.406353 C483.552953,108.009368 483.140949,106.80288 482.760637,105.85039 C480.028729,98.8654623 471.585804,98.2304689 465.462782,98.7892631 C465.197459,97.5987733 464.704546,96.4710124 464.011258,95.4682474 C463.910058,95.1234986 463.709379,94.8164161 463.434452,94.5856065 C463.303016,94.4734071 463.163155,94.3715073 463.016109,94.2808097 C462.905295,94.0750095 462.759426,93.8901971 462.585089,93.7347153 C462.411138,93.577758 462.219721,93.4413942 462.014621,93.3283195 C461.867269,93.2484769 461.714812,93.1784752 461.558246,93.1187717 C461.190953,92.9786293 460.810983,92.8744279 460.423649,92.8076249 C459.972276,92.7146147 459.514653,92.6551865 459.054526,92.6298267 C460.173255,92.1395527 461.170794,91.4090209 461.97659,90.4898988 C462.524725,89.8446144 462.932714,89.0920458 463.174572,88.2801217 C463.375361,87.6048959 463.465273,86.9014666 463.440791,86.1973432 C463.276378,86.4875063 463.0854,86.7617328 462.870323,87.0164847 C463.136541,84.2034638 461.653324,81.3459933 460.803961,78.5456722 C459.774859,74.9000457 459.584149,71.0681328 460.24617,67.338038 L460.24617,67.338038 C461.095534,61.7119961 463.199926,56.0224549 464.626096,50.294814 C464.629709,50.2631675 464.629709,50.2312115 464.626096,50.199565 C465.373989,47.3550955 465.836879,44.4430014 466.007896,41.5065048 C466.255099,35.582016 464.74019,29.6702271 462.306193,24.2727828 C460.144754,19.4912822 456.956472,14.7859808 452.075802,12.8429009 C448.450162,11.376066 444.387163,11.6110136 440.482627,11.3697161 C431.722775,10.8236217 423.36859,7.73755359 415.039759,4.93088258 C406.710927,2.12421157 398.141232,-0.42846206 389.375042,0.0604828892 C380.608852,0.549427839 371.58912,4.78483409 367.589506,12.5571538 C366.3218,14.9828288 365.592869,17.6815509 364.07796,19.9611773 C361.238297,24.2600829 356.154794,26.4127107 351.914316,29.3781301 C347.673838,32.3435494 343.940443,36.553556 342.406518,41.5763541 C341.568853,44.2824469 341.450869,47.1607317 342.064237,49.9265178 L342.064237,49.9265178 C342.202216,50.5511219 342.38006,51.1662126 342.596674,51.7679988 C343.198258,53.4458208 344.136644,54.9823563 345.353935,56.2828022 C346.272055,57.2439514 347.327257,58.0635245 348.48517,58.714827 L348.48517,58.714827 C349.939271,59.5223269 351.495774,60.1289597 353.112299,60.5182084 C353.055252,60.7087065 352.998205,60.9119044 352.93482,61.1087523 C352.833403,61.432599 352.744664,61.7437458 352.649586,62.0929922 C352.440414,62.8740341 352.24392,63.6677759 352.079118,64.4678676 C352.072514,64.5248255 352.072514,64.5823579 352.079118,64.6393159 C351.300582,68.2511407 350.909598,71.9359786 350.912828,75.6310523 C350.911548,77.3785971 351.000406,79.1250408 351.179047,80.8633983 L351.179047,80.8633983 C353.714459,106.631432 374.948542,126.957572 401.183727,128.278359 C402.083799,128.322808 402.990209,128.348208 403.909296,128.348208 C404.327639,128.348208 404.739644,128.348208 405.177002,128.348208 C405.589007,128.894302 405.994673,129.453096 406.381324,129.999191 C406.767974,130.545285 407.122932,131.104079 407.458874,131.650174 L406.539787,130.697684 L406.539787,130.697684 L405.6207,129.853142 C405.371512,130.195729 405.093732,130.516495 404.790352,130.811982 C404.191029,130.600782 403.579251,130.426886 402.958516,130.291288 L402.958516,130.291288 C400.328025,129.707094 396.322073,129.491196 391.048414,131.08503 C386.199437,132.539165 380.272909,135.529984 373.338555,141.213175 L339.54784,161.532965 L321.267513,172.67075 L314.681778,188.799583 C314.681778,188.799583 309.731384,207.963685 304.2232,229.921759 C304.00769,229.985258 303.798518,230.048757 303.589347,230.124957 C303.143226,230.07408 302.69458,230.048639 302.245578,230.048757 C295.603905,230.033186 290.138549,235.281176 289.872763,241.929485 C278.919779,255.264347 278.298603,268.599209 280.872047,274.720546 L280.872047,274.720546 C281.105076,275.294036 281.398296,275.841087 281.746765,276.352479 C283.432814,278.790854 286.583065,285.077289 289.777685,291.77647 C289.695284,292.328914 289.644576,292.792459 289.619222,293.141706 C289.613449,293.255931 289.613449,293.370376 289.619222,293.484602 C289.619222,293.484602 291.520781,322.256155 285.182249,330.50472 C283.794111,332.301751 284.003282,334.663927 285.182249,337.2801 L285.182249,337.2801 C289.429066,346.690703 306.219838,359.257223 306.219838,359.257223 C306.219838,359.257223 326.357354,359.149274 337.576556,357.923737 C337.544864,359.054025 337.51951,360.177963 337.494156,361.276502 C337.240614,372.376187 337.240614,381.678841 337.240614,381.678841 L336.822271,393.318271 C336.822271,393.318271 333.019152,417.848068 331.117592,424.610748 C329.91961,428.852504 331.30141,468.126848 332.505731,497 L530.914466,497 C533.247046,479.918676 529.957348,428.020662 529.957348,428.020662 C529.957348,428.020662 526.832451,414.603251 526.718358,402.906672 C526.705837,402.880585 526.705837,402.85021 526.718358,402.824123 C526.718358,401.801783 526.718358,400.804844 526.756389,399.826954 L528.195236,399.776154 L530.781357,399.687255 L531.015882,399.687255 C531.015882,399.687255 531.079268,399.445958 531.225054,399.052262 L531.225054,399.052262 C531.567288,398.071573 532.033816,397.138972 532.613193,396.27734 C533.716097,394.645407 535.440178,393.045224 538.032638,392.937275 C539.465146,392.880125 541.683632,391.718087 544.187352,390.003605 C544.204041,390.007416 544.221372,390.007416 544.238061,390.003605 C550.97592,385.438002 559.881558,377.011639 562.042998,375.627354 C565.015769,373.722373 579.252113,361.022505 579.252113,361.022505 C579.252113,361.022505 581.375521,358.330132 583.638377,355.085316 L583.720778,354.971017 C586.535086,350.907059 589.526873,346.049359 588.791603,344.519025 C587.523897,341.775853 589.640967,335.216371 589.640967,335.216371 C596.252056,323.094346 589.247978,307.029012 586.268868,303.009504 Z M463.70067,107.698221 C463.761427,107.887799 463.799721,108.083877 463.814764,108.282415 C463.656301,108.072867 463.497837,107.85062 463.339374,107.647422 L463.187249,107.444224 L463.079494,107.291825 L463.320358,106.961629 C463.320358,106.961629 463.320358,106.961629 463.320358,107.006078 L463.320358,107.006078 C463.48772,107.211953 463.616561,107.446436 463.70067,107.698221 L463.70067,107.698221 Z M461.570924,102.072179 C460.880024,102.211878 460.33491,102.338876 459.979952,102.434125 C459.529916,101.634034 459.098896,100.833942 458.712245,100.02115 C459.728371,100.611744 460.685642,101.298562 461.570924,102.072179 L461.570924,102.072179 Z M460.379279,103.075469 C460.377459,103.062834 460.377459,103.050004 460.379279,103.037369 L460.429988,103.075469 L460.429988,103.075469 C460.689868,103.246917 460.943409,103.412015 461.177935,103.583464 L461.177935,103.583464 C461.387106,103.735862 461.577262,103.881911 461.767418,104.034309 C461.640647,104.256557 461.5012,104.485154 461.361752,104.669302 C461.139903,104.320056 460.930732,103.983509 460.727899,103.634263 C460.601128,103.494565 460.487035,103.304066 460.379279,103.075469 Z M456.57616,95.2396498 C457.80075,95.1186247 459.034257,95.1186247 460.258847,95.2396498 L460.258847,95.2396498 C460.429988,95.2396498 460.582112,95.2713995 460.734237,95.2967992 L460.734237,95.2967992 C461.077935,95.3500374 461.415525,95.4372455 461.742064,95.5571465 C462.491158,96.6069889 462.952309,97.835288 463.079494,99.1194597 L462.737213,99.1702592 L462.401271,99.2337585 C461.767418,99.3417074 461.133565,99.4496563 460.639159,99.5512552 L460.005306,99.6846039 C459.162281,99.868752 458.674214,100.008451 458.655199,100.0148 C458.572798,99.8433522 458.490397,99.6846039 458.401657,99.5195056 C458.26221,99.2464584 458.116423,98.9670613 457.989653,98.6940141 C457.862882,98.4209669 457.69808,98.1098201 457.564971,97.8240731 C457.476232,97.6716747 457.412846,97.5192762 457.343123,97.3795777 L457.343123,97.3795777 C457.343123,97.3160783 457.279737,97.2652789 457.254383,97.2017795 C457.217484,97.1344204 457.185702,97.0643731 457.159305,96.9922317 C456.772655,96.2048398 456.417697,95.4174479 456.075416,94.6427559 C456.037385,94.5665567 456.005692,94.4840076 455.974,94.4078084 L456.455728,94.3760587 L456.455728,94.541157 L456.57616,95.2396498 Z M305.34512,489.151481 C305.294412,479.696429 304.60985,469.466684 302.708291,459.865584 C301.896959,455.782576 301.060272,451.699568 300.210909,447.686409 C299.995399,446.68312 299.786227,445.69253 299.577056,444.70194 L297.624788,444.962287 L297.447309,444.962287 C292.122942,419.810197 286.557711,397.648926 286.557711,397.648926 C286.557711,397.648926 275.503311,355.364713 276.783694,351.992898 C276.948496,351.554752 276.739324,350.373665 276.270273,348.640132 C273.595412,339.026332 262.426919,312.534405 258.522383,303.479399 L258.522383,303.479399 C258.522383,303.441299 258.49069,303.39685 258.478013,303.3651 L258.478013,303.3651 C257.84416,301.847466 257.387785,300.825126 257.248338,300.526679 L258.167425,287.014019 L258.218133,286.201227 L258.338565,284.474045 L258.287857,284.429596 L258.338565,283.629504 C258.338565,283.629504 248.691319,275.704786 232.350583,269.983495 C231.71673,269.754897 231.044846,269.53265 230.3793,269.316752 C231.19697,263.849458 232.280859,257.677322 233.694352,251.663934 C233.827461,251.06069 233.973247,250.476496 234.125372,249.885952 L234.125372,249.885952 C234.258481,249.295409 234.410606,248.723914 234.562731,248.14607 C234.803595,247.20628 235.063475,246.27919 235.329693,245.364799 C236.210749,245.085402 237.079128,244.774255 237.93483,244.444059 L238.264434,244.31706 C260.064508,235.819049 272.24709,212.494899 266.787829,189.707624 L266.787829,189.707624 C265.282592,183.45833 262.50299,177.588613 258.623799,172.467552 C258.332227,172.073856 258.021639,171.68016 257.711051,171.292814 C257.400463,170.905468 257.026489,170.473673 256.67787,170.079977 C258.509706,165.90807 260.671145,161.939361 260.848624,157.881753 C260.880303,157.367898 260.880303,156.852574 260.848624,156.338719 C260.848624,156.338719 260.848624,156.338719 260.848624,156.338719 L260.848624,156.275219 C260.614098,153.665396 259.460485,151.023824 256.772948,148.248902 C252.849396,144.178594 247.26515,142.114866 241.680903,141.124276 C236.096656,140.133686 230.404654,140.108286 224.788714,139.441543 C215.47741,138.323955 206.406971,135.447434 197.095667,134.564794 C185.626607,133.500819 174.079676,135.471467 163.609201,140.279735 C156.681186,143.454702 149.664431,149.004544 149.246087,156.618116 C148.903807,162.910901 153.277394,168.943338 152.174489,175.159924 C151.077923,181.268561 144.866162,186.075462 145.411275,192.253948 C145.620447,194.666923 146.856461,196.8259 148.403063,198.749931 L148.403063,198.749931 C148.935499,199.384924 149.499629,200.019918 150.082774,200.654911 C152.339291,203.048836 154.823996,205.347512 156.085364,208.363731 C156.136072,208.49073 156.18678,208.617729 156.23115,208.744727 C157.302362,211.722847 156.820633,215.488358 154.171127,217.19649 C154.185796,217.207889 154.196814,217.223341 154.20282,217.24094 L154.20282,217.24094 C154.240851,217.291739 154.278882,217.329839 154.310575,217.380638 C154.314476,217.370416 154.314476,217.359111 154.310575,217.348889 C155.249985,218.46462 156.516338,219.255571 157.929877,219.609465 L158.468652,219.774563 C158.031293,220.250809 157.619288,220.746103 157.200945,221.266798 L156.928388,221.628744 C156.22985,222.569633 155.594593,223.556053 155.026829,224.581464 C154.703564,225.152958 154.392976,225.724452 154.133096,226.295946 C153.264245,228.037959 152.635224,229.889966 152.263229,231.801339 C151.585006,236.004996 152.542124,240.386451 151.515282,244.501208 C150.247576,249.581156 146.235285,253.480015 143.972429,258.198017 C139.687581,267.087925 142.115239,277.520867 142.977279,287.337866 C144.149908,300.672728 142.248348,314.06474 140.353127,327.310703 C139.347413,334.354897 138.341699,341.40544 137.335985,348.462334 C134.800573,366.174418 132.26516,383.886502 129.729747,401.598585 C128.804321,408.088218 127.707755,414.933448 123.391215,419.943546 L123.435584,419.943546 C123.435584,419.943546 123.435584,419.981646 123.391215,419.994345 C124.687004,420.561723 126.065119,420.91759 127.473229,421.048435 L127.473229,421.048435 C133.108184,421.613579 139.079082,418.883107 144.149908,415.898638 C148.165666,413.573977 151.968755,410.898739 155.514896,407.90407 C154.995136,409.809051 154.437345,411.885479 153.841523,414.120656 C153.843484,414.141777 153.843484,414.163035 153.841523,414.184155 L153.841523,414.184155 C146.68532,441.488873 135.174546,491.545406 135.174546,491.545406 C135.174546,491.545406 134.128688,493.723434 132.772242,496.96825 L311.518851,496.96825 C309.427135,494.428277 307.481206,491.996252 305.959958,490.034122 L305.34512,489.151481 Z M172.996568,236.678089 C173.040937,236.60189 173.07263,236.53204 173.117,236.462191 C173.117,236.665389 173.117,236.862237 173.117,237.052735 C173.117,237.243233 173.117,237.414681 173.117,237.592479 C173.117,237.770278 173.117,237.751228 173.117,237.840127 C173.117,237.929026 173.117,237.840127 173.117,237.840127 C173.117,238.100474 173.059953,238.360821 173.015583,238.621169 C173.015583,238.621169 173.015583,238.652918 173.015583,238.678318 L173.649436,238.913266 L174.384706,239.218063 L174.384706,239.218063 C178.728714,240.936778 183.127655,242.492512 187.58153,243.885264 C188.037905,244.031313 188.500617,244.171011 188.96333,244.30436 L189.058408,245.091752 C189.172502,245.898194 189.280257,246.717335 189.381673,247.536477 C189.381673,247.536477 189.381673,247.574576 189.381673,247.599976 C189.666907,249.866903 189.945803,252.127479 190.193006,254.337256 C190.193006,254.337256 178.55546,249.892302 178.701247,256.642283 C178.694603,256.76284 178.694603,256.883672 178.701247,257.004229 C178.688353,257.164835 178.688353,257.326218 178.701247,257.486824 C178.809002,262.74457 180.450682,265.862387 180.780285,267.462571 C180.760541,267.528845 180.72584,267.589681 180.678869,267.640369 C180.397661,268.253398 180.30075,268.935201 180.399973,269.602499 C180.388913,270.738434 180.477999,271.873129 180.666192,272.993364 C180.323911,273.202912 179.987969,273.412459 179.652026,273.628357 C179.652026,273.628357 179.652026,273.628357 179.652026,273.628357 C179.398485,273.787106 179.157621,273.964904 178.910418,274.142702 C177.355472,268.739243 175.321148,263.485962 172.831766,258.445664 C171.088669,254.851601 169.130063,251.10514 169.148941,247.161831 C169.148941,246.907833 169.148941,246.647486 169.180771,246.387139 C169.251424,245.244269 169.468721,244.115276 169.827302,243.028023 C169.973088,242.615278 170.131551,242.208882 170.30903,241.808836 C170.723258,240.858244 171.186598,239.929898 171.697169,239.027565 L171.697169,239.027565 C172.026772,238.430671 172.375391,237.840127 172.711334,237.243233 C172.819089,237.065435 172.920505,236.881287 173.021922,236.703489 L172.996568,236.678089 Z M457.596664,97.8240731 C457.507924,97.6716747 457.444539,97.5192762 457.374815,97.3795777 L457.374815,97.3795777 C457.374815,97.3160783 457.31143,97.2652789 457.286076,97.2017795 C457.147927,97.2670703 457.006131,97.324315 456.861394,97.3732277 C456.582499,97.4811766 456.297265,97.5827756 456.005692,97.6653247 C455.71412,97.7478739 455.593688,97.7923234 455.371839,97.8431229 L454.80771,97.9891714 L454.858418,98.1034702 C455.092944,98.0526707 455.321131,98.0082212 455.555656,97.9447218 L455.619042,98.7321137 C455.88526,98.7321137 456.132463,98.6940141 456.373327,98.6940141 L456.715608,98.6940141 C457.210013,98.6940141 457.641034,98.6940141 457.983314,98.6940141 C457.850205,98.4082671 457.710757,98.1098201 457.596664,97.8240731 Z" id="Shape" fill="url(#linearGradient-2)" fill-rule="nonzero"></path>
                    <path d="M319.564261,189.409068 L315.684007,191.10725 C315.684007,191.10725 290.391215,288.473931 290.391215,296.34324 C290.391215,304.212549 344.022799,348 344.022799,348 L352.391215,292.0305 C352.391215,292.0305 340.37536,163.680016 319.564261,189.409068 Z" id="Path" fill="#E8F5FF" fill-rule="nonzero"></path>
                    <path d="M434.241799,160 L412.315988,148.755085 C411.087808,143.609313 408.908655,138.728969 405.886948,134.356867 C402.678756,129.804169 398.413822,125.332325 393.098474,123 C379.664565,117.079005 449.922076,86 449.922076,86 C451.028782,89.7334633 452.331953,93.4079333 453.826326,97.0085729 C457.445825,105.790553 463.450902,117.14742 471.189796,120.381577 C484.345282,125.885863 434.241799,160 434.241799,160 Z" id="Path" fill="#FFC1C7" fill-rule="nonzero"></path>
                    <path d="M453.391215,95.6996785 C447.278143,116.382664 428.113383,130.996313 405.785927,132 C402.600093,127.575048 398.364882,123.228682 393.086576,120.961801 C379.746288,115.206945 449.514174,85 449.514174,85 C450.613167,88.6287044 451.907256,92.2000708 453.391215,95.6996785 L453.391215,95.6996785 Z" id="Path" fill="#000000" fill-rule="nonzero" opacity="0.1"></path>
                    <path d="M455.391215,79.986947 C455.395861,101.02028 442.485673,119.985244 422.680944,128.037288 C402.876214,136.089332 380.077814,131.642473 364.918065,116.77056 C349.758317,101.898646 345.223183,79.5309478 353.427682,60.0989248 C361.632181,40.6669018 380.960301,27.9980126 402.398127,28 C416.471368,27.9366909 429.987109,33.3931002 439.939101,43.1561356 C449.891093,52.919171 455.454069,66.1792353 455.391215,79.986947 L455.391215,79.986947 Z" id="Path" fill="#FFC1C7" fill-rule="nonzero"></path>
                    <polygon id="Path" fill="#147FC3" fill-rule="nonzero" points="462.391215 152.819528 448.284432 187.187878 435.84095 210 396.0093 210 384.391215 178.811245 389.099728 146.466868 419.520604 146.466868 439.161296 145.311245 445.795736 143 450.072792 145.533229"></polygon>
                    <path d="M459.415535,108.02351 C459.415535,108.02351 468.441033,109.905535 460.358498,116.385976 C452.275962,122.866417 424.391215,143.474596 424.391215,143.474596 C424.391215,143.474596 434.186478,152.006445 432.159429,162 L464.611451,144.308961 L470.384691,116.003298 C470.384691,116.003298 471.032576,107.496543 459.415535,108.02351 Z" id="Path" fill="#000000" fill-rule="nonzero" opacity="0.1"></path>
                    <path d="M429.928055,146 L408.949468,149.369423 C408.949468,149.369423 413.278176,164.947452 411.113822,169.370216 C411.048435,169.507677 410.99395,169.649807 410.950843,169.79536 L402.391215,192.315289 L408.806047,210 L431.010232,180.525481 L423.441513,169.370216 C423.441513,169.370216 431.440496,159.052548 436.199467,155.473726 C440.958438,151.894904 429.928055,146 429.928055,146 Z" id="Path" fill="#000000" fill-rule="nonzero" opacity="0.1"></path>
                    <path d="M429.928055,143 L408.949468,146.363411 C408.949468,146.363411 413.278176,161.942985 411.113822,166.366187 C411.048435,166.503662 410.99395,166.645806 410.950843,166.791373 L402.391215,189.313535 L408.806047,207 L431.010232,177.50352 L423.441513,166.347149 C423.441513,166.347149 431.440496,156.028458 436.199467,152.449281 C440.958438,148.870104 429.928055,143 429.928055,143 Z" id="Path" fill="#DCE6F2" fill-rule="nonzero"></path>
                    <path d="M458.628109,108.023512 C458.628109,108.023512 467.489291,109.905756 459.547607,116.38695 C451.605922,122.868144 423.391215,145.141367 423.391215,145.141367 C423.391215,145.141367 433.839473,152.011558 431.855627,162 L463.716833,144.313179 L469.384967,116.004227 C469.384967,116.004227 470.014759,107.496484 458.628109,108.023512 Z" id="Path" fill="#147FC3" fill-rule="nonzero"></path>
                    <path d="M407.568889,136 C407.568889,136 409.567959,139.574733 418.391215,146.020463 C418.391215,146.020463 403.700982,153.493772 409.320517,164 L386.848889,158.395018 L383.391215,148.063167 L407.568889,136 Z" id="Path" fill="#000000" fill-rule="nonzero" opacity="0.1"></path>
                    <path d="M407.566875,136 C407.566875,136 409.566317,139.575528 418.391215,146.022692 C418.391215,146.022692 403.698248,153.460289 409.318829,164 L386.849532,158.393771 L383.391215,148.065851 L407.566875,136 Z" id="Path" fill="#147FC3" fill-rule="nonzero"></path>
                    <path d="M462.391215,153.233543 L448.284432,187.353048 L435.865962,210 L396.0093,210 L384.391215,179.037067 L389.093475,146.926879 L397.553793,146.926879 C397.416227,154.419688 400.054995,163.221795 399.886164,166.495037 C399.598526,171.874823 407.627386,200.899737 407.627386,200.899737 C407.627386,200.899737 424.429214,172.730403 431.063653,170.221997 C435.234408,168.646952 444.069906,155.541017 450.066539,146 L462.391215,153.233543 Z" id="Path" fill="#000000" fill-rule="nonzero" opacity="0.1"></path>
                    <path d="M521.052905,329.092969 L519.600639,330.926975 C519.600639,330.926975 530.12164,383.953934 527.210767,395.995964 C526.715932,398.166482 526.433438,400.380349 526.367311,402.606026 L526.367311,402.701547 C525.853627,414.953723 529.538197,430.854806 529.538197,430.854806 C529.538197,430.854806 532.48078,477.723837 530.806552,497 L333.818406,497 C332.664203,468.496497 331.421216,431.56803 332.550052,427.473358 C334.452583,420.716831 338.257647,396.20611 338.257647,396.20611 L338.676204,384.590742 C338.676204,384.590742 338.676204,373.363826 339.01866,360.856927 C339.164521,355.233916 339.380141,349.330711 339.690888,344.096153 C340.090419,337.511564 340.648495,331.964971 341.41585,329.239435 C341.88852,327.173528 342.160377,325.066429 342.227597,322.947777 C342.227597,322.750366 342.227597,322.546588 342.265647,322.34281 C342.265647,321.706002 342.329065,321.01825 342.354432,320.311394 C342.354432,320.113983 342.354432,319.916573 342.354432,319.674586 C342.474926,315.573546 342.430534,310.708337 342.297356,305.664821 C342.297356,305.390994 342.297356,305.110799 342.297356,304.830604 C342.189546,301.047967 342.031002,297.188914 341.853432,293.520903 C341.301698,282.058368 340.585078,272.366158 340.585078,272.366158 L316.391215,191.873691 L322.910557,175.749725 L341.003635,164.61833 L374.456486,144.336012 C390.773867,130.867533 401.51683,132.485024 405.613616,133.962418 C406.011478,134.098747 406.401099,134.258219 406.780502,134.440023 C406.907337,134.503704 407.008806,134.554649 407.103932,134.611961 C407.234246,134.673919 407.359373,134.746325 407.478097,134.828476 L407.478097,134.828476 C406.356328,135.370419 405.381618,136.176579 404.636983,137.178296 C403.798065,138.31829 403.200253,139.618559 402.880312,140.999141 C402.666068,141.854899 402.515563,142.725486 402.430046,143.603683 C402.347603,144.527054 402.315894,145.482265 402.315894,146.443845 C402.361121,148.55261 402.541176,150.656281 402.854944,152.741871 C402.854944,152.780079 402.854944,152.831024 402.854944,152.881968 C403.064223,154.372098 403.324236,155.830387 403.577907,157.199523 C403.575054,157.222785 403.575054,157.24631 403.577907,157.269572 C403.869628,158.867959 404.16135,160.345352 404.357945,161.618967 C404.395995,161.848218 404.427704,162.058364 404.459413,162.255775 C404.599194,163.097421 404.664979,163.949782 404.656008,164.803005 C404.727409,166.863271 405.00359,168.911222 405.480438,170.916356 C405.645325,171.756942 405.835578,172.654841 406.044856,173.590948 C406.330236,174.864563 406.640983,176.252803 406.977097,177.666516 C407.161008,178.443421 407.357603,179.245798 407.56054,180.041808 C407.636641,180.360212 407.719084,180.678615 407.795185,181.003387 L407.922021,181.506465 C409.272819,186.900224 410.737768,192.268512 411.6383,195.51623 C412.171009,197.426652 412.507123,198.604746 412.507123,198.604746 C412.507123,198.604746 422.057832,183.098484 429.680643,174.272332 C429.794795,174.14497 429.896264,174.023977 430.004074,173.909352 C430.758745,173.036925 431.500732,172.240916 432.211011,171.540428 C433.764745,169.986618 435.159935,168.878572 436.282429,168.471016 C436.521704,168.382884 436.752976,168.274226 436.973682,168.146244 C440.093834,166.369551 445.129202,159.918691 449.841139,153.162164 C450.304088,152.525356 450.754354,151.831236 451.210962,151.175324 C452.257354,149.659722 453.272038,148.137753 454.229646,146.679463 C454.965291,145.56505 455.669228,144.482478 456.335114,143.450849 C459.506001,138.496487 461.738305,134.803004 461.738305,134.803004 L466.139495,134.605593 L466.906849,134.567385 L467.420533,134.567385 L487.403459,133.637646 C487.403459,133.637646 488.26594,133.784112 489.686497,134.070675 C489.762599,134.070675 489.8387,134.070675 489.921143,134.12162 C497.011245,135.535332 516.708791,140.012089 517.913728,146.220962 C519.385019,153.824443 551.157301,163.968787 551.157301,163.968787 C551.575858,169.063247 559.357213,172.419222 559.357213,172.419222 C559.357213,172.419222 571.140227,203.68647 567.988366,215.938646 C564.874555,228.037988 576.093151,257.96794 576.391215,258.808526 L576.391215,258.808526 L574.241354,261.534062 L521.052905,329.092969 Z" id="Path" fill="#E8F5FF" fill-rule="nonzero"></path>
                    <path d="M459.967893,105.364052 C459.967893,105.364052 480.052831,99.7467503 484.617292,111.310643 C489.181753,122.874535 499.391215,169.575615 499.391215,169.575615 C499.391215,169.575615 472.881978,174.502053 465.933781,169.575615 C461.8581,166.651815 456.813784,165.351397 451.808183,165.934055 L436.818152,176 L432.391215,174.708666 C432.391215,174.708666 456.372644,139.558566 461.585428,127.61373 C466.798213,115.668894 468.55982,110.329229 459.967893,105.364052 Z" id="Path" fill="#000000" fill-rule="nonzero" opacity="0.1"></path>
                    <path d="M457.939006,104.364052 C457.939006,104.364052 478.035077,98.7467503 482.618736,110.310643 C487.202395,121.874535 497.391215,168.575615 497.391215,168.575615 C497.391215,168.575615 470.891117,173.502053 463.937051,168.575615 C459.864344,165.651648 454.822465,164.351128 449.819381,164.934055 L434.81772,175 L430.391215,173.708666 C430.391215,173.708666 454.3703,138.558566 459.582575,126.61373 C464.79485,114.668894 466.530093,109.342143 457.939006,104.364052 Z" id="Path" fill="#E8F5FF" fill-rule="nonzero"></path>
                    <path d="M326.620014,288 C326.620014,288 341.257886,291.364521 344.020472,299.08383 C346.783059,306.80314 333.200341,307 333.200341,307 C333.200341,307 324.925371,293.345055 326.620014,288 Z" id="Path" fill="#000000" fill-rule="nonzero" opacity="0.1"></path>
                    <path d="M380.391215,348 C380.391215,348 345.555181,419.763943 353.596178,426.60962 C361.637174,433.455296 380.391215,348 380.391215,348 Z" id="Path" fill="#000000" fill-rule="nonzero" opacity="0.1"></path>
                    <path d="M430.391215,296 C430.391215,296 459.67104,365.496725 453.813768,376.229761 C447.956495,386.962798 466.391215,376.229761 466.391215,376.229761 L430.391215,296 Z" id="Path" fill="#000000" fill-rule="nonzero" opacity="0.1"></path>
                    <path d="M470.221929,365 C470.221929,365 375.909313,369.521662 403.421315,398.701867 C430.933318,427.882072 487.391215,399.940679 487.391215,399.940679 L470.221929,365 Z" id="Path" fill="#FFC1C7" fill-rule="nonzero"></path>
                    <path d="M456.391215,81.3827869 C456.399956,88.3865461 455.03782,95.3230018 452.38306,101.793441 C451.4945,101.89672 450.605939,101.96127 449.749341,102 C448.470836,99.1662628 449.154836,95.8935869 449.180406,92.7758305 C449.205976,89.6580741 448.068107,85.9916442 445.095584,85.1524965 C439.169715,83.4677462 435.0785,94.6542303 429.235734,92.6338209 C424.760968,91.0975351 425.9308,84.242344 423.354613,80.28544 C421.315398,77.1547736 417.230576,76.270441 414.053492,74.3081265 C407.296595,70.118843 407.501156,63.4185715 404.362427,57.079779 C401.07667,50.4376024 394.13439,52.3999169 388.106241,56.3180911 C383.529194,59.3002929 379.578615,63.2959269 374.681942,65.6713603 C370.4437,67.7369546 365.68127,68.4857325 360.982766,68.5954672 C358.090166,68.7086565 355.196522,68.399942 352.391215,67.6788598 C359.216919,41.7669253 384.012808,24.9833536 410.343034,28.4530634 C436.67326,31.9227733 456.373177,54.5698548 456.38478,81.3827869 L456.391215,81.3827869 Z" id="Path" fill="#000000" fill-rule="nonzero" opacity="0.1"></path>
                    <path d="M388.997956,56.0249275 C384.420772,58.9593271 380.481967,62.8845629 375.591976,65.2346232 C371.359516,67.2607563 366.603585,67.9975319 361.911492,68.1055077 C356.166072,68.2325379 349.98017,67.2289987 346.054132,63.1005144 C342.447285,59.2896059 341.585472,53.4271582 343.111201,48.4285165 C344.636929,43.4298748 348.294846,39.282336 352.591144,36.2780697 C356.887441,33.2738035 361.873189,31.1968583 364.720364,26.8968832 C366.226941,24.6230411 366.954694,21.942702 368.205919,19.5227751 C372.208562,11.7802792 381.20972,7.58827982 389.91084,7.06745565 C398.611959,6.54663148 407.236474,9.12534627 415.522646,11.9200125 C423.808819,14.7146788 432.158829,17.7888117 440.904636,18.3667995 C444.798754,18.6081571 448.846083,18.3667995 452.459314,19.8339993 C457.317386,21.7966172 460.502902,26.4903862 462.673394,31.266725 C465.105622,36.6528091 466.618583,42.5343113 466.363231,48.4158135 C465.826992,60.9727572 457.489749,73.2946948 461.15405,85.3244628 C462.124388,88.5319775 463.943771,91.8220619 462.973433,95.0295766 C461.556229,99.7106426 455.485235,100.777697 450.576093,101 C449.299333,98.2116852 449.9824,94.985116 450.007935,91.9236861 C450.03347,88.8622563 448.897154,85.2482446 445.93507,84.4225478 C440.010904,82.7775056 435.925272,93.7656253 430.103246,91.7839528 C425.666505,90.2659409 426.815589,83.5269843 424.236533,79.633506 C422.200101,76.5466701 418.114469,75.6828642 414.948104,73.7520038 C408.200427,69.6298711 408.404709,63.0369993 405.270263,56.7998123 C401.963455,50.2323465 395.024264,52.1632069 388.997956,56.0249275 Z" id="Path" fill="#2A2B2E" fill-rule="nonzero"></path>
                    <path d="M295.57715,295.224741 L290.762793,296.903113 C290.762793,296.903113 292.655725,325.372354 286.345952,333.537069 C280.036179,341.701785 307.067246,362 307.067246,362 C307.067246,362 344.118232,361.791781 345.165655,358.845164 C346.213077,355.898547 343.272723,306.096306 343.272723,306.096306 C343.272723,306.096306 323.384319,298.348028 325.056408,286 C325.056408,286 318.986407,315.093898 309.988671,313.838273 C300.990935,312.582648 290.775412,305.067829 295.57715,295.224741 Z" id="Path" fill="#E8F5FF" fill-rule="nonzero"></path>
                    <ellipse id="Oval" fill="#000000" fill-rule="nonzero" opacity="0.1" cx="310.891215" cy="310" rx="12.5" ry="12"></ellipse>
                    <path d="M325.391215,297.555872 C325.391215,297.555872 322.788388,220.285908 300.130779,237.50202 C277.473171,254.718133 277.251931,275.307844 281.566116,281.390448 C285.880302,287.473053 299.714327,317.924052 299.714327,317.924052 L299.714327,317.924052 C304.103812,320.398593 309.446616,320.67698 314.08275,318.672719 C318.718884,316.668458 322.086678,312.624365 323.139769,307.796927 L325.391215,297.555872 Z" id="Path" fill="#FFC1C7" fill-rule="nonzero"></path>
                    <path d="M461.829477,100.029948 C461.726631,99.6884017 461.528811,99.3835155 461.259323,99.1512084 C460.169695,98.151483 457.825727,97.8012608 454.29077,98.1069093 L454.436476,99.7879762 C459.149752,99.3804448 460.081004,100.322861 460.20137,100.482053 L460.20137,100.641245 L460.347076,100.851378 C461.535423,102.456641 461.995428,104.491087 461.614085,106.454935 C460.581473,111.644592 454.24009,115.777215 454.176739,115.821788 L454.024698,115.910936 L453.929673,116.057392 C451.192932,120.139074 435.716411,131.658203 431.668315,134.638276 L431.313553,134.230744 C429.501729,135.809928 413.575419,149.825187 412.713853,155.193139 C412.156369,158.56164 408.38068,159.867014 407.01231,160.229972 C405.567919,159.128364 400.879984,155.377802 398.440991,151.175134 C396.154038,147.220807 405.358863,139.503181 406.169749,136.49127 L404.902739,135.185896 C404.769703,135.669839 392.948504,146.775069 396.236394,152.44867 C398.871774,157.001559 403.68641,160.898578 405.371533,162.184849 C404.833054,167.100696 401.481813,195.965379 396.33142,202.804264 C389.933022,211.305114 384.554566,254.146849 385.150061,269.104523 C385.67587,282.393866 382.223269,307.495252 370.693482,318.27573 C366.649577,322.222411 361.034765,324.098184 355.445022,323.369872 L355.305651,323.369872 L355.16628,323.369872 C355.001569,323.369872 338.277043,325.089145 324.225908,313.181588 C312.727796,303.458144 306.215367,287.589891 304.859667,266.003464 L304.580925,266.003464 L304.466894,259.718567 C310.945992,258.702154 315.465457,252.717638 314.697398,246.171697 C313.92934,239.625756 308.148772,234.862263 301.612195,235.388798 C295.075619,235.915333 290.123554,241.543363 290.402436,248.128709 C290.681318,254.714054 296.091289,259.898732 302.648736,259.865023 L302.788107,259.865023 L302.902138,266.111715 L302.344653,266.149921 C303.738364,288.436793 310.580215,304.92271 322.616806,315.104626 C331.765473,322.724707 343.451446,326.568782 355.311986,325.859634 C356.153536,325.952131 356.99944,326 357.846005,326 C363.282443,326.027866 368.513339,323.9133 372.416615,320.109621 C384.560901,308.743316 388.254234,282.718618 387.677745,268.97717 C387.04424,253.12802 392.688767,211.827263 398.3523,204.307036 C403.901802,196.926898 407.265712,168.170466 407.854871,162.598748 C409.863081,162.032025 414.405311,160.242707 415.178186,155.594303 C415.735671,152.232169 426.372216,141.871957 432.91632,136.13468 L432.719933,135.905443 C436.24222,133.320166 447.195517,125.169539 452.624653,119.935308 C454.309775,118.31155 455.982228,116.687793 457.730701,115.140447 C459.833937,113.26835 462.507327,110.294644 463.210517,106.779686 C463.695037,104.434613 463.195366,101.992505 461.829477,100.029948 Z" id="Path" fill="#000000" fill-rule="nonzero" opacity="0.1"></path>
                    <path d="M407.751227,162 C407.458123,161.811601 400.507366,157.179582 397.02501,151.605568 C393.410058,145.817169 406.432258,134.493735 406.571832,134 L407.967566,135.331787 C407.081274,138.398144 396.941266,146.278422 399.460566,150.306265 C402.635861,155.393039 409.321428,159.843155 409.391215,159.888631 L407.751227,162 Z" id="Path" fill="#353146" fill-rule="nonzero"></path>
                    <path d="M431.447753,139 L430.391215,137.58571 C430.60794,137.434414 451.88094,122.488986 455.233418,117.654087 L455.341781,117.509369 L455.497553,117.410698 C455.56528,117.364651 462.344736,113.102047 463.448684,107.734322 C463.860439,105.707602 463.368194,103.606347 462.094147,101.952178 L461.938375,101.728523 L461.938375,101.570649 C461.802921,101.399619 460.807337,100.432639 455.76846,100.853637 L455.612689,99.1104421 C459.398619,98.7946936 461.897739,99.1564887 463.062641,100.189249 C463.352606,100.431604 463.566237,100.748544 463.678955,101.103604 C465.159161,103.12512 465.713114,105.651036 465.209581,108.082961 C464.457813,111.720647 461.606514,114.792617 459.35121,116.719998 C457.488722,118.318475 455.693961,120.009045 453.8992,121.673302 C447.092653,128.008006 432.192748,138.480331 431.447753,139 Z" id="Path" fill="#E8F5FF" fill-rule="nonzero"></path>
                    <polygon id="Rectangle" fill="#E8F5FF" fill-rule="nonzero" transform="translate(303.851670, 261.916032) rotate(-1.050000) translate(-303.851670, -261.916032) " points="303.010028 256.803204 304.693189 256.803225 304.693312 267.028859 303.010151 267.028839"></polygon>
                    <circle id="Oval" fill="#FFFFFF" fill-rule="nonzero" cx="301.391215" cy="246" r="12"></circle>
                    <circle id="Oval" fill="#E8F5FF" fill-rule="nonzero" cx="300.891215" cy="246.5" r="9.5"></circle>
                    <path d="M357.491535,323 C356.635949,323 355.780917,322.956639 354.930169,322.867124 C342.942548,323.562668 331.132997,319.755258 321.882143,312.21241 C309.715654,302.119135 302.812773,285.805879 301.391215,263.707914 L303.952581,263.550207 C305.322911,284.935334 311.905622,300.661918 323.534224,310.28838 C337.736999,322.053353 354.635612,320.381655 354.8021,320.381655 L354.942975,320.381655 L355.083851,320.381655 C360.735486,321.099491 366.411246,319.241866 370.503274,315.335017 C382.151086,304.65507 385.640948,279.787763 385.109464,266.622348 C384.469123,251.791541 389.905622,209.349319 396.379475,200.934051 C402.046497,193.559651 405.561972,160.321234 405.600393,159.986895 L405.696444,159.04065 L406.644149,158.876634 C406.70178,158.876634 412.234331,157.842074 412.9259,153.766914 C413.822378,148.455328 429.89495,134.570766 431.719923,133 L433.391215,134.892489 C426.750873,140.569956 415.999539,150.839864 415.461652,154.176953 C414.680435,158.794627 410.089187,160.56095 408.065708,161.11608 C407.425366,166.642148 404.050766,195.124109 398.460585,202.435425 C392.735932,209.885524 387.030489,250.801139 387.67083,266.50249 C388.221524,280.115795 384.526754,305.904113 372.251407,317.158115 C368.298725,320.935721 362.998477,323.033389 357.491535,323 Z" id="Path" fill="#353146" fill-rule="nonzero"></path>
                    <g id="Group" opacity="0.1" transform="translate(342.391215, 47.000000)" fill="#000000" fill-rule="nonzero">
                        <path d="M120.203299,19.9927059 C121.251546,16.1428235 122.517113,12.2675294 123.399175,8.36682353 C122.344536,12.2865882 121.072577,16.1428235 120.203299,19.9927059 Z" id="Path"></path>
                        <path d="M109.509897,50.2454118 C108.231546,47.4564706 108.915464,44.2291765 108.941031,41.1670588 C108.966598,38.1049412 107.828866,34.5218824 104.863093,33.6642353 C98.9315464,32.0188235 94.8408247,43.0157647 89.0115464,41.0272941 C84.5373196,39.5089412 85.7197938,32.7684706 83.1375258,28.8741176 C81.0985567,25.7865882 77.0142268,24.9225882 73.8439175,22.9912941 C67.0814433,18.8682353 67.2859794,12.2738824 64.1540206,6.03529412 C60.862268,-0.508235294 53.9272165,1.42305882 47.8934021,5.28564706 C43.3105155,8.22070588 39.3668041,12.1531765 34.4707216,14.4974118 C30.2329897,16.524 25.471134,17.2609412 20.7731959,17.3689412 C15.0525773,17.5023529 8.82701031,16.4922353 4.89608247,12.3628235 C1.86639175,9.18635294 0.773402062,4.52964706 1.39979381,0.165176471 C1.29113402,0.463764706 1.19525773,0.762352941 1.09938144,1.06094118 C-0.434639175,6.06070588 0.460206186,11.9371765 4.04597938,15.7362353 C7.97690722,19.8656471 14.2024742,20.8694118 19.9230928,20.7423529 C24.6274227,20.6343529 29.3828866,19.8974118 33.6270103,17.8708235 C38.5358763,15.5202353 42.4795876,11.5941176 47.0496907,8.65905882 C53.0835052,4.79647059 60.0249485,2.86517647 63.3103093,9.40870588 C66.442268,15.6472941 66.2441237,22.2416471 73.0002062,26.3647059 C76.1960825,28.2705882 80.2548454,29.16 82.3002062,32.2475294 C84.8569072,36.1545882 83.725567,42.8823529 88.1742268,44.4007059 C93.9971134,46.3828235 98.0878351,35.3922353 104.019381,37.0376471 C106.985155,37.8635294 108.129278,41.4847059 108.09732,44.5404706 C108.065361,47.5962353 107.400619,50.8298824 108.666186,53.6188235 C113.581443,53.3964706 119.66,52.3482353 121.085361,47.6470588 C121.281582,46.9723858 121.372128,46.2717077 121.353814,45.5696471 C119.276495,49.1336471 113.93299,50.0484706 109.509897,50.2454118 Z" id="Path"></path>
                    </g>
                    <path d="M565.91439,251.498556 L573.345239,259.292634 C573.345239,259.292634 579.291198,302.242573 582.260978,306.260204 C585.230757,310.277835 592.245581,326.259503 585.659583,338.261621 C585.659583,338.261621 583.534655,344.792652 584.808332,347.528196 C586.082009,350.26374 575.258955,363.954152 575.258955,363.954152 C575.258955,363.954152 561.030895,376.58462 558.054715,378.482364 C555.078535,380.380107 539.371986,395.536669 534.066066,395.746119 C528.760145,395.955569 527.025641,402.4866 527.025641,402.4866 L497.084632,403.540197 C497.084632,403.540197 480.546032,402.683356 476.949015,405 C476.949015,405 478.869131,379.942167 460.391215,363.516211 L483.957438,355.093783 C483.957438,355.093783 492.879577,351.285602 495.638144,347.306052 C497.373511,344.866345 499.835407,343.026455 502.67857,342.044415 C502.67857,342.044415 509.258167,337.411128 509.46938,334.885034 C509.680593,332.35894 517.514666,329.261619 517.514666,329.261619 L513.079198,291.719298 L515.415339,229.392063 C515.415339,229.392063 522.846188,177.169202 538.559137,180.120543 C554.272087,183.071883 565.91439,251.498556 565.91439,251.498556 Z" id="Path" fill="#000000" fill-rule="nonzero" opacity="0.1"></path>
                    <path d="M565.91439,251.498556 L573.345239,259.292634 C573.345239,259.292634 579.291198,302.242573 582.260978,306.260204 C585.230757,310.277835 592.245581,326.259503 585.659583,338.261621 C585.659583,338.261621 583.541055,344.792652 584.814732,347.528196 C586.088409,350.26374 575.258955,363.954152 575.258955,363.954152 C575.258955,363.954152 561.030895,376.58462 558.054715,378.482364 C555.078535,380.380107 539.371986,395.536669 534.066066,395.746119 C528.760145,395.955569 527.025641,402.4866 527.025641,402.4866 L497.084632,403.540197 C497.084632,403.540197 480.533232,402.683356 476.949015,405 C476.949015,405 478.869131,379.942167 460.391215,363.516211 L483.957438,355.093783 C483.957438,355.093783 492.879577,351.285602 495.638144,347.306052 C497.373511,344.866345 499.835407,343.026455 502.67857,342.044415 C502.67857,342.044415 509.258167,337.411128 509.46938,334.885034 C509.680593,332.35894 517.514666,329.261619 517.514666,329.261619 L513.079198,291.719298 L515.415339,229.392063 C515.415339,229.392063 522.846188,177.169202 538.559137,180.120543 C554.272087,183.071883 565.91439,251.498556 565.91439,251.498556 Z" id="Path" fill="#E8F5FF" fill-rule="nonzero"></path>
                    <path d="M541.391215,313.454953 C541.391215,313.454953 563.0539,307.082682 568.734253,314.871014 C574.414606,322.659345 541.391215,313.454953 541.391215,313.454953 Z" id="Path" fill="#000000" fill-rule="nonzero" opacity="0.1"></path>
                    <path d="M535.391215,322 C542.48839,328.72695 564.391215,329 564.391215,329 L535.391215,322 Z" id="Path" fill="#000000" fill-rule="nonzero" opacity="0.1"></path>
                    <path d="M548.391215,350 C549.002442,350.238671 563.445735,368.478927 569.509107,362.960563 C575.572478,357.442198 548.391215,350 548.391215,350 Z" id="Path" fill="#000000" fill-rule="nonzero" opacity="0.1"></path>
                    <path d="M343.391215,213 C343.391215,213 347.804569,244.045574 345.629688,256.68992 C343.454808,269.334266 351.391215,285 351.391215,285 L343.391215,213 Z" id="Path" fill="#000000" fill-rule="nonzero" opacity="0.1"></path>
                    <path d="M247.653664,227.897149 C242.572513,231.962745 238.863273,241.585306 236.176614,252.161044 C231.489252,270.608607 229.958556,292 229.958556,292 C229.958556,292 189.499892,282.533061 192.44696,278.234033 C194.30158,275.530119 191.811816,255.156747 189.734895,240.385728 C188.496365,231.657988 187.391215,224.881993 187.391215,224.881993 C187.391215,224.881993 261.563314,216.705411 247.653664,227.897149 Z" id="Path" fill="#FFCCD0" fill-rule="nonzero"></path>
                    <path d="M247.653664,224.854945 C242.572513,228.899794 238.863273,238.451563 236.176614,248.956577 C219.753939,254.013488 201.919338,249.524232 189.734895,237.266448 C188.496365,228.590633 187.391215,221.859953 187.391215,221.859953 C187.391215,221.859953 261.563314,213.744492 247.653664,224.854945 Z" id="Path" fill="#000000" fill-rule="nonzero" opacity="0.1"></path>
                    <path d="M269.391215,204.981443 C269.399897,227.887735 252.892845,247.463564 230.313871,251.323535 C207.734897,255.183505 185.662092,242.203065 178.060659,220.594785 C170.459225,198.986505 179.543743,175.045677 199.566544,163.91938 C219.589345,152.793082 244.717047,157.722818 259.05165,175.589601 C265.741909,183.925143 269.389198,194.293139 269.391215,204.981443 L269.391215,204.981443 Z" id="Path" fill="#FFCCD0" fill-rule="nonzero"></path>
                    <path d="M305.351484,497 L292.590897,497 L291.515362,474.553052 L290.391215,451.319341 C290.391215,451.319341 293.289691,450.889647 297.907808,450.248133 L299.773285,450 L299.925196,450 C300.933891,454.714525 301.930432,459.556142 302.890514,464.391707 C304.488597,472.976199 305.320271,481.684776 305.37579,490.4154 C305.37579,491.020603 305.37579,491.625805 305.37579,492.194695 C305.412249,493.810585 305.37579,495.426474 305.351484,497 Z" id="Path" fill="#000000" fill-rule="nonzero" opacity="0.1"></path>
                    <path d="M304.360968,497 L139.391215,497 C140.105315,495.346116 140.581382,494.343569 140.581382,494.343569 C140.581382,494.343569 153.779714,435.480634 160.488501,410.576594 C160.490553,410.555359 160.490553,410.533971 160.488501,410.512737 C161.326713,407.129726 162.338706,403.793947 163.520296,400.519192 L163.520296,400.519192 C163.596633,400.296584 163.695292,400.082596 163.814706,399.880627 C167.134647,394.376196 171.29397,388.443926 165.474677,379.970166 C159.655383,371.496407 161.716253,334.210588 161.716253,334.210588 C161.716253,334.210588 168.78209,302.429201 176.261353,285.481682 C177.396412,282.856574 179.007324,280.473454 181.009495,278.457465 C181.660438,277.808245 182.355373,277.206509 183.089157,276.656712 L183.089157,276.656712 C183.647004,276.229332 184.228425,275.834903 184.83056,275.475366 L184.949576,275.398738 C188.091477,273.582785 191.580431,272.478534 195.178754,272.161213 C197.73479,271.888846 200.314921,271.961848 202.852202,272.378325 C214.979383,274.19185 224.688645,277.225035 232.405942,280.679672 C253.321571,290.047423 259.654516,302.601613 259.779797,302.863425 L259.779797,302.863425 L259.829909,302.971981 C260.66929,304.97069 272.946808,334.191431 277.36922,347.824797 C278.51554,351.375219 279.141944,353.872009 278.891382,354.555273 C277.638574,357.939669 288.450307,400.308466 288.450307,400.308466 C288.450307,400.308466 293.461539,420.742551 298.472771,444.695129 C298.692012,445.691291 298.898725,446.687452 299.099175,447.696385 C299.994932,452.045014 300.884426,456.476656 301.7426,460.901912 C303.405306,470.021986 304.262734,479.275637 304.304592,488.551783 C304.396464,491.442355 304.415257,494.258427 304.360968,497 Z" id="Path" fill="#147FC3" fill-rule="nonzero"></path>
                    <path d="M191.635351,257.429632 C191.635351,257.429632 180.25466,253.00839 180.392456,259.716045 C180.530252,266.4237 183.167165,269.632259 182.334126,270.611248 C181.501087,271.590237 182.747514,277.457856 182.747514,277.457856 C182.747514,277.457856 198.124286,277.457856 205.189459,280.666414 C212.254632,283.874972 238.298063,290.304721 241.623955,292.262699 C244.949848,294.220678 257.282584,303 257.282584,303 L258.391215,286.376132 C258.391215,286.376132 245.645091,275.758836 224.731427,270.314393 C203.817764,264.86995 191.635351,257.429632 191.635351,257.429632 Z" id="Path" fill="#000000" fill-rule="nonzero" opacity="0.1"></path>
                    <path d="M191.633545,256.429632 C191.633545,256.429632 180.254682,252.00839 180.392456,258.716045 C180.530229,265.4237 183.166719,268.632259 182.333814,269.611248 C181.500909,270.590237 182.747135,276.457856 182.747135,276.457856 C182.747135,276.457856 198.121439,276.457856 205.185477,279.67273 C212.249516,282.887604 238.288764,289.311037 241.614123,291.262699 C244.939482,293.214361 257.270237,302 257.270237,302 L258.391215,285.42666 C258.391215,285.42666 245.647138,274.809365 224.736832,269.364921 C203.826527,263.920478 191.633545,256.429632 191.633545,256.429632 Z" id="Path" fill="#147FC3" fill-rule="nonzero"></path>
                    <path d="M228.391215,297 C228.391215,297 248.372165,321.427541 247.353551,328.192391 C246.334937,334.95724 228.391215,297 228.391215,297 Z" id="Path" fill="#000000" fill-rule="nonzero" opacity="0.1"></path>
                    <path d="M246.341013,433 C246.341013,433 235.121605,448.983533 241.192893,447.952149 C247.264182,446.920766 246.341013,433 246.341013,433 Z" id="Path"></path>
                    <path d="M190.982047,386 C190.982047,386 174.632484,400.895089 169.814342,401.739885 C164.9962,402.584681 173.508251,405.392198 179.045903,403.149995 C184.583554,400.907792 196.391215,395.006923 196.391215,395.006923 L190.982047,386 Z" id="Path" fill="#000000" fill-rule="nonzero" opacity="0.1"></path>
                    <path d="M309.391215,497 L270.781155,497 C265.381602,492.501125 260.274795,488.333417 257.022053,485.827793 C251.817664,481.816296 248.063998,475.911522 245.669979,471.162709 C245.130024,470.08173 244.661629,469.069483 244.264795,468.150962 C243.554203,466.568718 242.92885,464.952401 242.391215,463.308423 L270.982825,447 C272.562941,448.290616 274.047611,449.685305 275.426072,451.173957 L275.770863,451.555111 C277.358202,453.354661 278.756881,455.397901 278.880485,457.072482 C279.023606,459.021995 284.670368,466.563859 290.440734,473.805799 C296.295671,481.172707 302.293729,488.214696 302.690564,488.689578 L302.690564,488.689578 C302.690564,488.689578 303.679398,489.983004 305.292758,491.970007 C306.431218,493.407148 307.836403,495.131717 309.391215,497 Z" id="Path" fill="#FFCCD0" fill-rule="nonzero"></path>
                    <path d="M257.391215,175.318014 C256.055604,178.311313 254.859252,181.417805 254.682014,184.750681 C254.181952,194.372002 254.99218,215.884773 244.269317,220.714299 C238.958525,223.091331 233.274269,217.871922 227.450754,217.746153 C223.260356,217.658115 219.418102,220.299262 216.86082,223.600696 C214.303537,226.902129 212.71473,230.819831 210.860068,234.555167 C209.171763,237.945587 207.227128,241.203956 205.042883,244.302257 C204.389982,245.250472 203.670821,246.15194 202.890715,247 C184.978221,239.491072 173.635835,221.728429 174.430428,202.430016 C175.22502,183.131603 187.989788,166.348586 206.459753,160.318109 C224.929718,154.287632 245.227625,160.275625 257.391215,175.343167 L257.391215,175.318014 Z" id="Path" fill="#000000" fill-rule="nonzero" opacity="0.1"></path>
                    <path d="M255.713131,181.733027 C255.205961,191.458021 256.023772,213.202601 245.278115,218.077811 C239.959174,220.480457 234.266195,215.211162 228.433744,215.084038 C224.236915,214.988695 220.395105,217.664657 217.827559,220.995309 C215.260013,224.325961 213.681448,228.292233 211.817599,232.074176 C210.126192,235.50085 208.178595,238.794291 205.991488,241.926294 C204.685526,243.782307 203.240093,245.644675 201.230433,246.687093 C197.730963,248.51768 193.489757,247.487974 189.736701,246.312076 C184.867873,244.773875 180.070893,243.040749 175.345763,241.1127 C175.454198,240.397438 175.509294,239.675066 175.510593,238.95159 C175.371122,239.218551 175.218971,239.466443 175.06682,239.733404 L174.768858,240.254612 C174.22999,241.208043 173.703801,242.161474 173.22199,243.14033 C173.038141,243.515346 172.860632,243.903074 172.702141,244.290803 C172.064556,245.733717 171.664206,247.27062 171.516632,248.841846 C171.193312,253.081435 173.279047,257.104914 175.130216,260.918637 C182.24961,275.67139 186.649306,292.922133 181.292327,308.399493 C178.972026,315.130715 174.952707,321.111905 172.017462,327.614303 C166.886411,339.131057 165.37606,351.94165 167.687502,364.34046 C169.151954,372.044181 172.087198,379.671628 171.364481,387.483405 C170.096557,400.92678 158.53309,410.931447 146.950603,417.808862 C140.693398,421.508174 133.035137,424.800688 126.391215,421.876833 C130.626081,416.918993 131.716496,410.060647 132.629401,403.59003 C135.127211,385.940965 137.631361,368.283426 140.141851,350.617412 C141.143511,343.587448 142.143058,336.557485 143.140492,329.527521 C145.00434,316.319326 146.893547,302.964938 145.727057,289.674112 C144.877548,279.879199 142.481171,269.480446 146.716037,260.613539 C148.953923,255.916303 152.941545,252.026305 154.18411,246.966766 C155.204789,242.8543 154.253846,238.481231 154.925846,234.292491 C155.293666,232.38674 155.916343,230.53948 156.777015,228.80073 C157.872962,226.441317 159.303631,224.253303 161.024561,222.304688 C159.325542,221.808903 157.740637,221.128789 156.777015,219.704999 C159.503052,217.925262 159.915127,213.914496 158.678901,210.901655 C157.442675,207.888813 154.970223,205.594223 152.745016,203.217002 C150.51981,200.839781 148.377018,198.068475 148.098075,194.82681 C147.559207,188.654935 153.708639,183.875068 154.792714,177.785823 C155.889468,171.588522 151.553168,165.562839 151.901847,159.289264 C152.307583,151.706311 159.255807,146.195481 166.115276,142.998309 C176.466523,138.193963 187.901103,136.220351 199.258811,137.277724 C208.501978,138.154881 217.447182,141.021529 226.66499,142.133865 C232.224837,142.769486 237.86076,142.833048 243.382569,143.811904 C248.904378,144.790759 254.438867,146.856526 258.325054,150.918142 C268.569881,161.628348 256.296376,170.444405 255.713131,181.733027 Z" id="Path" fill="#743F24" fill-rule="nonzero"></path>
                    <path d="M244.700067,471.929036 C241.497058,470.521595 235.668838,471.362239 225.664146,468.27351 C215.659454,465.18478 213.731368,451.224998 213.731368,451.224998 L213.731368,451.180419 L213.731368,451.180419 C213.612041,450.861993 212.68254,448.785858 206.38957,441.513015 C199.437157,433.482319 184.408137,392.921256 184.408137,392.921256 C184.408137,392.921256 171.081109,378.407413 171.501896,373.057862 C171.922684,367.70831 169.134182,353.474682 169.41052,337.553398 C169.686858,321.632114 199.412035,311.073118 199.412035,311.073118 C256.645405,300.787969 243.167647,367.695573 241.641507,372.76491 C240.115368,377.834247 248.034964,391.526551 248.034964,391.526551 C246.917051,397.48748 252.619663,406.715456 252.619663,406.715456 C252.619663,406.715456 254.001353,414.879891 254.283971,417.981357 C254.299637,418.124619 254.33124,418.265624 254.378177,418.401679 C255.295117,421.324827 262.768804,423.974129 265.808522,425.585362 C269.005251,427.279387 279.286281,442.067076 279.286281,442.067076 C281.503265,452.925392 247.890515,473.355583 244.700067,471.929036 Z" id="Path" fill="#000000" fill-rule="nonzero" opacity="0.1"></path>
                    <path d="M246.701613,467.927781 C243.504556,466.513704 237.669456,467.360877 227.670016,464.265194 C217.670576,461.169512 215.736011,447.219832 215.736011,447.219832 L215.736011,447.175244 C215.622952,446.850388 214.687074,444.78023 208.393457,437.506014 C201.440329,429.473801 186.409764,388.898704 186.409764,388.898704 C186.409764,388.898704 173.081364,374.388489 173.495914,369.037927 C173.910464,363.687365 171.134237,349.451047 171.410604,333.539495 C171.68697,317.627942 201.396362,307.073321 201.396362,307.073321 C258.635618,296.786228 245.156474,363.706474 243.630177,368.776768 C242.103881,373.847063 250.024291,387.541954 250.024291,387.541954 C248.906264,393.504009 254.609462,402.733729 254.609462,402.733729 C254.609462,402.733729 255.991294,410.899706 256.280222,414.001758 C256.290744,414.145267 256.320323,414.286678 256.368157,414.42216 C257.285191,417.34586 264.759647,419.995662 267.805959,421.6072 C270.996735,423.295175 281.285103,438.092028 281.285103,438.092028 C283.514878,448.933286 249.89867,469.367337 246.701613,467.927781 Z" id="Path" fill="#147FC3" fill-rule="nonzero"></path>
                    <path d="M204.391215,342 C204.391215,342 229.17645,367 235.645142,367 C242.113833,367 204.391215,342 204.391215,342 Z" id="Path" fill="#000000" fill-rule="nonzero" opacity="0.1"></path>
                    <path d="M247.432092,468.927248 C244.124018,467.502706 238.086294,468.356148 227.739626,465.237556 C217.392957,462.118965 215.391215,448.066053 215.391215,448.066053 L215.391215,448.021135 L215.391215,448.021135 C222.247832,443.529337 239.613598,430.843215 246.457217,426.203829 C251.273098,422.950483 255.205092,418.169926 257.505796,415 C258.454674,417.945336 266.188679,420.614748 269.340773,422.238212 C272.642348,423.938679 283.287978,438.845033 283.287978,438.845033 C285.523691,449.792187 250.740166,470.377457 247.432092,468.927248 Z" id="Path" fill="#147FC3" fill-rule="nonzero"></path>
                    <g id="Group" opacity="0.1" transform="translate(126.391215, 150.000000)" fill="#000000" fill-rule="nonzero">
                        <path d="M30.4007442,70.7806713 C30.4323721,70.8315972 30.4766512,70.8761574 30.5146047,70.9270833 C30.7043721,70.6851852 30.9004651,70.443287 31.1028837,70.2141204 C30.8873074,70.4250506 30.6521919,70.6147635 30.4007442,70.7806713 L30.4007442,70.7806713 Z" id="Path"></path>
                        <path d="M45.076093,99.9612269 C45.3417674,96.4282407 47.2204651,93.3153935 48.9789767,90.208912 C47.8277209,89.7633102 46.6764651,89.3113426 45.5378605,88.8402778 C45.6463049,88.1261088 45.7012813,87.4047501 45.7023256,86.6822917 C43.9248372,89.865162 41.9892093,92.9971065 41.7172093,96.5810185 C41.3946047,100.833333 43.4757209,104.856481 45.3227907,108.675926 C52.4327442,123.444444 56.8163721,140.721065 51.4712558,156.228009 C49.1497674,162.962963 45.1456744,168.959491 42.2169302,175.471644 C37.0991079,187.004016 35.5942779,199.831867 37.9028837,212.246528 C39.3514419,219.968171 42.2865116,227.600694 41.5653953,235.42419 C40.3002791,248.887731 28.7687442,258.907407 17.2055814,265.788773 C12.4803721,268.602431 6.95813953,271.180556 1.67627907,270.995949 C1.18736416,271.787998 0.641929218,272.543264 0.0442790698,273.255787 C6.67981395,276.203125 14.3147907,272.886574 20.5581395,269.168981 C32.1276279,262.293981 43.6844651,252.299769 44.9495814,238.810764 C45.6706977,230.987269 42.7356279,223.354745 41.2807442,215.633102 C38.9714203,203.219619 40.4717174,190.392792 45.5821395,178.858218 C48.491907,172.352431 52.5402791,166.349537 54.8364651,159.614583 C60.1815814,144.107639 55.7916279,126.831019 48.688,112.0625 C46.8472558,108.217593 44.7534884,104.213542 45.076093,99.9612269 Z" id="Path"></path>
                        <path d="M131.673302,1.89699074 C131.051097,1.25458871 130.383019,0.658862506 129.674419,0.114583333 C137.341023,10.1215278 126.271256,18.6261574 125.72093,29.3969907 C125.227535,39.1365741 126.037209,60.9201389 115.315349,65.7962963 C110.014512,68.208912 104.327814,62.9253472 98.5146047,62.7980324 C94.3207442,62.708912 90.4874419,65.3888889 87.9255814,68.724537 C85.3637209,72.0601852 83.7886512,76.0324074 81.9352558,79.8136574 C80.2444588,83.2450692 78.2991055,86.5433745 76.1157209,89.6805556 C74.8506047,91.5457176 73.3704186,93.4045139 71.3588837,94.4548611 C67.879814,96.2818287 63.648,95.2569444 59.8969302,94.0729167 C56.2491783,92.9185957 52.6351628,91.6454475 49.0548837,90.2534722 C49.0475023,90.9165117 48.9925376,91.5781486 48.8904186,92.2332176 C53.6093023,94.1684028 58.3977674,95.9041281 63.255814,97.4403935 C67.0005581,98.6244213 71.2323721,99.6493056 74.7177674,97.822338 C76.7229767,96.7719907 78.1778605,94.9068287 79.4746047,93.0416667 C81.659553,89.9089326 83.6029683,86.6124558 85.287814,83.1811343 C87.1475349,79.3998843 88.7162791,75.4212963 91.2844651,72.0856481 C93.8526512,68.75 97.6796279,66.0763889 101.867163,66.1655093 C107.686698,66.2928241 113.373395,71.5763889 118.674233,69.1637731 C129.396093,64.2876157 128.580093,42.5040509 129.079814,32.7644676 C129.661767,21.4398148 141.908093,12.6168981 131.673302,1.89699074 Z" id="Path"></path>
                    </g>
                    <path d="M173.391215,239.222605 C172.852103,240.114903 172.325675,241.007201 171.843646,241.923294 C171.659714,242.274264 171.482124,242.637132 171.323561,243 C168.000094,239.859111 159.907071,232.39355 155.391215,230.079524 C156.48921,227.872205 157.920388,225.824684 159.640686,224 C159.640686,224 170.4039,229.335942 173.391215,239.222605 Z" id="Path" fill="#000000" fill-rule="nonzero" opacity="0.1"></path>
                    <path d="M173.391215,239.893228 C170.939221,229.581757 159.571457,224 159.571457,224 C157.877796,225.776941 156.469796,227.772188 155.391215,229.923734 C160.07683,232.305979 168.711838,240.293167 171.575617,243 L173.391215,239.893228 Z" id="Path" fill="#000000" fill-rule="nonzero"></path>
                </g>
            </g>
        </g>
    </g>
</svg>