<svg id="visual" viewBox="0 0 900 600" width="900" height="600" xmlns="http://www.w3.org/2000/svg" xmlns:xlink="http://www.w3.org/1999/xlink" version="1.1"><path d="M61 0L70.5 16.7C80 33.3 99 66.7 110.5 100C122 133.3 126 166.7 117.2 200C108.3 233.3 86.7 266.7 73.7 300C60.7 333.3 56.3 366.7 61.8 400C67.3 433.3 82.7 466.7 95.2 500C107.7 533.3 117.3 566.7 122.2 583.3L127 600L0 600L0 583.3C0 566.7 0 533.3 0 500C0 466.7 0 433.3 0 400C0 366.7 0 333.3 0 300C0 266.7 0 233.3 0 200C0 166.7 0 133.3 0 100C0 66.7 0 33.3 0 16.7L0 0Z" fill="#34A4EA" stroke-linecap="round" stroke-linejoin="miter"></path></svg>